HIERARCHY
ROOT Hips
{
	OFFSET 0.000000 0.000000 0.000000
	CHANNELS 6 Xposition Yposition Zposition Xrotation Yrotation Zrotation
	JOINT Thigh.L
	{
		OFFSET 0.056067 0.027003 -0.096094
		CHANNELS 3 Xrotation Yrotation Zrotation
		JOINT Shin.L
		{
			OFFSET 0.059690 0.006777 -0.409482
			CHANNELS 3 Xrotation Yrotation Zrotation
			JOINT Foot.L
			{
				OFFSET -0.042600 0.032503 -0.434501
				CHANNELS 3 Xrotation Yrotation Zrotation
				JOINT Toe.L
				{
					OFFSET 0.048574 -0.126376 -0.063678
					CHANNELS 3 Xrotation Yrotation Zrotation
					End Site
					{
						OFFSET 0.000000 0.050000 0.000000
					}
				}
			}
		}
	}
	JOINT Thigh.R
	{
		OFFSET -0.061160 0.021291 -0.108744
		CHANNELS 3 Xrotation Yrotation Zrotation
		JOINT Shin.R
		{
			OFFSET -0.048709 0.014885 -0.390860
			CHANNELS 3 Xrotation Yrotation Zrotation
			JOINT Foot.R
			{
				OFFSET 0.014259 0.020559 -0.443424
				CHANNELS 3 Xrotation Yrotation Zrotation
				JOINT Toe.R
				{
					OFFSET -0.039844 -0.127188 -0.063593
					CHANNELS 3 Xrotation Yrotation Zrotation
					End Site
					{
						OFFSET 0.000000 0.050000 0.000000
					}
				}
			}
		}
	}
	JOINT Spine
	{
		OFFSET -0.002678 0.027839 0.115301
		CHANNELS 3 Xrotation Yrotation Zrotation
		JOINT Spine.2
		{
			OFFSET 0.009421 0.006482 0.143815
			CHANNELS 3 Xrotation Yrotation Zrotation
			JOINT Chest
			{
				OFFSET -0.011110 -0.024290 0.057088
				CHANNELS 3 Xrotation Yrotation Zrotation
				JOINT Neck
				{
					OFFSET -0.012452 0.026767 0.172128
					CHANNELS 3 Xrotation Yrotation Zrotation
					JOINT Head
					{
						OFFSET 0.025666 -0.020684 0.170681
						CHANNELS 3 Xrotation Yrotation Zrotation
						End Site
						{
							OFFSET 0.000000 0.050000 0.000000
						}
					}
				}
				JOINT Clavicle.L
				{
					OFFSET 0.047904 0.004731 0.088615
					CHANNELS 3 Xrotation Yrotation Zrotation
					JOINT UpperArm.L
					{
						OFFSET 0.128284 0.014080 0.058900
						CHANNELS 3 Xrotation Yrotation Zrotation
						JOINT ForeArm.L
						{
							OFFSET 0.268380 0.043635 -0.075342
							CHANNELS 3 Xrotation Yrotation Zrotation
							JOINT Hand.L
							{
								OFFSET 0.271502 0.000567 0.022754
								CHANNELS 3 Xrotation Yrotation Zrotation
								JOINT Thumb1.L
								{
									OFFSET 0.154581 0.000250 0.010022
									CHANNELS 3 Xrotation Yrotation Zrotation
									JOINT Thumb2.L
									{
										OFFSET 0.029895 0.000062 0.002505
										CHANNELS 3 Xrotation Yrotation Zrotation
										End Site
										{
											OFFSET 0.024913 0.000052 0.002088
										}
									}
								}
								JOINT Index1.L
								{
									OFFSET 0.137581 0.000250 0.010022
									CHANNELS 3 Xrotation Yrotation Zrotation
									JOINT Index2.L
									{
										OFFSET 0.029895 0.000062 0.002505
										CHANNELS 3 Xrotation Yrotation Zrotation
										JOINT Index3.L
										{
											OFFSET 0.021923 0.000046 0.001837
											CHANNELS 3 Xrotation Yrotation Zrotation
											End Site
											{
												OFFSET 0.017937 0.000037 0.001503
											}
										}
									}
								}
								JOINT Middle1.L
								{
									OFFSET 0.119581 0.000250 0.010022
									CHANNELS 3 Xrotation Yrotation Zrotation
									JOINT Middle2.L
									{
										OFFSET 0.030892 0.000064 0.002589
										CHANNELS 3 Xrotation Yrotation Zrotation
										JOINT Middle3.L
										{
											OFFSET 0.021923 0.000046 0.001837
											CHANNELS 3 Xrotation Yrotation Zrotation
											End Site
											{
												OFFSET 0.017937 0.000037 0.001503
											}
										}
									}
								}
								JOINT Ring1.L
								{
									OFFSET 0.101581 0.000250 0.010022
									CHANNELS 3 Xrotation Yrotation Zrotation
									JOINT Ring2.L
									{
										OFFSET 0.028899 0.000060 0.002422
										CHANNELS 3 Xrotation Yrotation Zrotation
										JOINT Ring3.L
										{
											OFFSET 0.019930 0.000042 0.001670
											CHANNELS 3 Xrotation Yrotation Zrotation
											End Site
											{
												OFFSET 0.016941 0.000035 0.001420
											}
										}
									}
								}
								JOINT Pinky1.L
								{
									OFFSET 0.085581 0.000250 0.010022
									CHANNELS 3 Xrotation Yrotation Zrotation
									JOINT Pinky2.L
									{
										OFFSET 0.023916 0.000050 0.002004
										CHANNELS 3 Xrotation Yrotation Zrotation
										JOINT Pinky3.L
										{
											OFFSET 0.016941 0.000035 0.001420
											CHANNELS 3 Xrotation Yrotation Zrotation
											End Site
											{
												OFFSET 0.013951 0.000029 0.001169
											}
										}
									}
								}
							}
						}
					}
				}
				JOINT Clavicle.R
				{
					OFFSET -0.049118 0.010911 0.087743
					CHANNELS 3 Xrotation Yrotation Zrotation
					JOINT UpperArm.R
					{
						OFFSET -0.111174 0.010753 0.054959
						CHANNELS 3 Xrotation Yrotation Zrotation
						JOINT ForeArm.R
						{
							OFFSET -0.286799 0.027916 -0.039087
							CHANNELS 3 Xrotation Yrotation Zrotation
							JOINT Hand.R
							{
								OFFSET -0.267883 0.014076 -0.005437
								CHANNELS 3 Xrotation Yrotation Zrotation
								JOINT Thumb1.R
								{
									OFFSET -0.154810 0.006295 -0.002432
									CHANNELS 3 Xrotation Yrotation Zrotation
									JOINT Thumb2.R
									{
										OFFSET -0.029953 0.001574 -0.000608
										CHANNELS 3 Xrotation Yrotation Zrotation
										End Site
										{
											OFFSET -0.024960 0.001312 -0.000507
										}
									}
								}
								JOINT Index1.R
								{
									OFFSET -0.137810 0.006295 -0.002432
									CHANNELS 3 Xrotation Yrotation Zrotation
									JOINT Index2.R
									{
										OFFSET -0.029953 0.001574 -0.000608
										CHANNELS 3 Xrotation Yrotation Zrotation
										JOINT Index3.R
										{
											OFFSET -0.021965 0.001154 -0.000446
											CHANNELS 3 Xrotation Yrotation Zrotation
											End Site
											{
												OFFSET -0.017972 0.000944 -0.000365
											}
										}
									}
								}
								JOINT Middle1.R
								{
									OFFSET -0.119810 0.006295 -0.002432
									CHANNELS 3 Xrotation Yrotation Zrotation
									JOINT Middle2.R
									{
										OFFSET -0.030951 0.001626 -0.000628
										CHANNELS 3 Xrotation Yrotation Zrotation
										JOINT Middle3.R
										{
											OFFSET -0.021965 0.001154 -0.000446
											CHANNELS 3 Xrotation Yrotation Zrotation
											End Site
											{
												OFFSET -0.017972 0.000944 -0.000365
											}
										}
									}
								}
								JOINT Ring1.R
								{
									OFFSET -0.101810 0.006295 -0.002432
									CHANNELS 3 Xrotation Yrotation Zrotation
									JOINT Ring2.R
									{
										OFFSET -0.028954 0.001521 -0.000588
										CHANNELS 3 Xrotation Yrotation Zrotation
										JOINT Ring3.R
										{
											OFFSET -0.019968 0.001049 -0.000405
											CHANNELS 3 Xrotation Yrotation Zrotation
											End Site
											{
												OFFSET -0.016973 0.000892 -0.000344
											}
										}
									}
								}
								JOINT Pinky1.R
								{
									OFFSET -0.085810 0.006295 -0.002432
									CHANNELS 3 Xrotation Yrotation Zrotation
									JOINT Pinky2.R
									{
										OFFSET -0.023962 0.001259 -0.000486
										CHANNELS 3 Xrotation Yrotation Zrotation
										JOINT Pinky3.R
										{
											OFFSET -0.016973 0.000892 -0.000344
											CHANNELS 3 Xrotation Yrotation Zrotation
											End Site
											{
												OFFSET -0.013978 0.000734 -0.000284
											}
										}
									}
								}
							}
						}
					}
				}
			}
		}
	}
}
MOTION
Frames: 8
Frame Time: 0.04166667
0.033995 0.560398 1.047139 -8.054054 0.931840 -5.047224 -19.073440 -2.732047 -0.825479 5.721726 1.365677 -3.527184 -3.155228 4.392531 7.993851 -0.547229 -2.008301 -1.073637 12.591168 -5.160033 -2.642897 8.522243 1.050817 11.406404 -20.814784 2.299856 2.427404 -1.053462 -0.997083 0.433587 14.604336 -1.504266 7.775799 -2.887749 1.325268 -1.232913 4.368446 0.621872 2.222083 5.343600 -0.313985 3.579582 3.817399 -0.740132 -1.554783 -2.392849 22.131630 -0.898236 21.069726 44.582526 -14.520342 18.638765 -0.373418 -23.192289 -1.209950 1.042213 -7.757716 0.000000 0.000000 0.000000 0.000000 0.000000 0.000000 0.000000 0.000000 0.000000 0.000000 0.000000 0.000000 0.000000 0.000000 0.000000 0.000000 0.000000 0.000000 0.000000 0.000000 0.000000 0.000000 0.000000 0.000000 0.000000 0.000000 0.000000 0.000000 0.000000 0.000000 0.000000 0.000000 0.000000 0.000000 0.000000 0.000000 0.000000 0.000000 0.000000 0.000000 0.000000 0.000000 -3.236844 -17.221164 10.618720 18.984126 -39.775762 29.357096 11.391143 2.533957 31.673648 -5.185415 -0.967428 6.356709 0.000000 0.000000 0.000000 0.000000 0.000000 0.000000 0.000000 0.000000 0.000000 0.000000 0.000000 0.000000 0.000000 0.000000 0.000000 0.000000 0.000000 0.000000 0.000000 0.000000 0.000000 0.000000 0.000000 0.000000 0.000000 0.000000 0.000000 0.000000 0.000000 0.000000 0.000000 0.000000 0.000000 0.000000 0.000000 0.000000 0.000000 0.000000 0.000000 0.000000 0.000000 0.000000
0.028967 0.574637 1.044770 -8.104248 1.416425 -5.567154 -18.717039 -2.815651 -0.607546 3.035976 0.897849 -3.767529 -2.960000 4.686731 7.749770 -0.592737 -2.081217 -1.077098 13.541992 -5.344762 -2.898884 8.730328 1.234221 11.975123 -21.492941 2.335968 2.771668 -1.041690 -0.991764 0.393069 14.414508 -1.643966 7.905684 -2.786353 1.367594 -1.200809 4.477192 0.593394 2.250511 5.446849 -0.455056 3.840794 3.911036 -0.801519 -1.636766 -2.518641 22.232271 -0.809317 20.812917 44.589138 -13.896947 18.616282 -0.187351 -23.114685 -1.200601 0.919468 -7.636858 0.000000 0.000000 0.000000 0.000000 0.000000 0.000000 0.000000 0.000000 0.000000 0.000000 0.000000 0.000000 0.000000 0.000000 0.000000 0.000000 0.000000 0.000000 0.000000 0.000000 0.000000 0.000000 0.000000 0.000000 0.000000 0.000000 0.000000 0.000000 0.000000 0.000000 0.000000 0.000000 0.000000 0.000000 0.000000 0.000000 0.000000 0.000000 0.000000 0.000000 0.000000 0.000000 -3.433259 -17.260791 10.676009 19.052531 -39.833363 29.616430 11.754236 2.843682 32.058040 -5.006973 -0.998071 6.478448 0.000000 0.000000 0.000000 0.000000 0.000000 0.000000 0.000000 0.000000 0.000000 0.000000 0.000000 0.000000 0.000000 0.000000 0.000000 0.000000 0.000000 0.000000 0.000000 0.000000 0.000000 0.000000 0.000000 0.000000 0.000000 0.000000 0.000000 0.000000 0.000000 0.000000 0.000000 0.000000 0.000000 0.000000 0.000000 0.000000 0.000000 0.000000 0.000000 0.000000 0.000000 0.000000
0.021910 0.588814 1.042243 -8.032986 1.972904 -6.017738 -18.229760 -2.695897 -0.512809 1.271844 0.427272 -3.936644 -3.323666 4.475520 7.735169 -0.619292 -2.203677 -1.109499 14.427876 -5.594307 -2.988330 8.702113 1.526823 12.671551 -22.003212 2.535353 2.955507 -0.981151 -1.020039 0.385255 13.934857 -1.717351 7.972073 -2.545035 1.284317 -1.229497 4.496185 0.609093 2.216660 5.857596 -0.590540 3.955731 3.842070 -0.858285 -1.776506 -2.596683 22.398096 -0.658460 20.696287 44.570150 -13.577952 18.457921 0.007077 -22.547587 -1.188630 0.633312 -7.464193 0.000000 0.000000 0.000000 0.000000 0.000000 0.000000 0.000000 0.000000 0.000000 0.000000 0.000000 0.000000 0.000000 0.000000 0.000000 0.000000 0.000000 0.000000 0.000000 0.000000 0.000000 0.000000 0.000000 0.000000 0.000000 0.000000 0.000000 0.000000 0.000000 0.000000 0.000000 0.000000 0.000000 0.000000 0.000000 0.000000 0.000000 0.000000 0.000000 0.000000 0.000000 0.000000 -3.657900 -17.443080 10.441615 19.506389 -39.969767 29.941303 12.174130 3.014675 32.313203 -5.124143 -1.085891 6.685603 0.000000 0.000000 0.000000 0.000000 0.000000 0.000000 0.000000 0.000000 0.000000 0.000000 0.000000 0.000000 0.000000 0.000000 0.000000 0.000000 0.000000 0.000000 0.000000 0.000000 0.000000 0.000000 0.000000 0.000000 0.000000 0.000000 0.000000 0.000000 0.000000 0.000000 0.000000 0.000000 0.000000 0.000000 0.000000 0.000000 0.000000 0.000000 0.000000 0.000000 0.000000 0.000000
0.017591 0.603521 1.039827 -7.911857 2.256900 -6.457530 -18.469493 -2.658498 -0.611558 1.694783 0.466926 -3.854035 -2.948602 4.267215 7.893382 -0.660867 -2.308789 -1.145235 15.023425 -5.526573 -2.997278 9.099215 1.668029 13.303613 -22.551445 2.623162 2.995463 -0.986165 -1.042891 0.379425 13.400600 -1.637275 8.122362 -2.383816 1.249396 -1.270031 4.581532 0.640058 2.219185 5.993911 -0.758335 4.161160 3.953792 -0.954035 -1.888001 -2.560867 22.613591 -0.433894 20.552400 44.440071 -13.272988 18.355927 -0.036104 -22.269920 -0.868695 0.548819 -7.329805 0.000000 0.000000 0.000000 0.000000 0.000000 0.000000 0.000000 0.000000 0.000000 0.000000 0.000000 0.000000 0.000000 0.000000 0.000000 0.000000 0.000000 0.000000 0.000000 0.000000 0.000000 0.000000 0.000000 0.000000 0.000000 0.000000 0.000000 0.000000 0.000000 0.000000 0.000000 0.000000 0.000000 0.000000 0.000000 0.000000 0.000000 0.000000 0.000000 0.000000 0.000000 0.000000 -3.615585 -17.759584 10.243739 19.850352 -40.135797 30.123179 12.615637 3.399023 32.586211 -4.877954 -1.367694 6.706201 0.000000 0.000000 0.000000 0.000000 0.000000 0.000000 0.000000 0.000000 0.000000 0.000000 0.000000 0.000000 0.000000 0.000000 0.000000 0.000000 0.000000 0.000000 0.000000 0.000000 0.000000 0.000000 0.000000 0.000000 0.000000 0.000000 0.000000 0.000000 0.000000 0.000000 0.000000 0.000000 0.000000 0.000000 0.000000 0.000000 0.000000 0.000000 0.000000 0.000000 0.000000 0.000000
0.014476 0.619676 1.037811 -7.746520 2.388500 -6.848646 -18.836728 -2.587821 -0.872997 2.977481 0.719746 -3.842092 -2.510292 3.937657 8.035315 -0.694748 -2.371342 -1.160436 15.497779 -5.296176 -2.899841 9.713863 1.752631 13.922028 -22.885736 2.690069 2.818016 -1.015030 -1.069568 0.380519 12.767603 -1.451074 8.258471 -2.237763 1.197877 -1.326438 4.639198 0.727223 2.223583 6.175401 -0.928767 4.276746 4.082000 -1.072717 -1.902284 -2.501956 22.826768 -0.127755 20.481050 44.300732 -13.142942 18.250603 -0.134347 -21.868304 -0.416808 0.474930 -7.160243 0.000000 0.000000 0.000000 0.000000 0.000000 0.000000 0.000000 0.000000 0.000000 0.000000 0.000000 0.000000 0.000000 0.000000 0.000000 0.000000 0.000000 0.000000 0.000000 0.000000 0.000000 0.000000 0.000000 0.000000 0.000000 0.000000 0.000000 0.000000 0.000000 0.000000 0.000000 0.000000 0.000000 0.000000 0.000000 0.000000 0.000000 0.000000 0.000000 0.000000 0.000000 0.000000 -3.409792 -18.224442 9.889439 20.244234 -40.261977 30.253520 13.060007 3.720039 32.820493 -4.606275 -1.820159 6.631497 0.000000 0.000000 0.000000 0.000000 0.000000 0.000000 0.000000 0.000000 0.000000 0.000000 0.000000 0.000000 0.000000 0.000000 0.000000 0.000000 0.000000 0.000000 0.000000 0.000000 0.000000 0.000000 0.000000 0.000000 0.000000 0.000000 0.000000 0.000000 0.000000 0.000000 0.000000 0.000000 0.000000 0.000000 0.000000 0.000000 0.000000 0.000000 0.000000 0.000000 0.000000 0.000000
0.010526 0.638546 1.036328 -7.463638 2.445974 -7.179258 -19.384489 -2.455969 -1.236253 4.916708 1.101255 -3.772482 -1.893161 3.498211 8.365843 -0.743817 -2.439714 -1.192385 15.671259 -4.902844 -2.784637 10.739733 1.781105 14.483627 -22.844868 2.649758 2.383402 -1.053217 -1.128295 0.403430 12.049888 -1.122671 8.425971 -2.042187 1.112709 -1.364395 4.616066 0.832982 2.200412 6.382696 -1.102395 4.435019 4.273214 -1.218530 -1.913315 -2.343059 23.011737 0.169722 20.560716 44.068270 -13.247931 18.190935 -0.280881 -21.479686 0.055093 0.277085 -7.077835 0.000000 0.000000 0.000000 0.000000 0.000000 0.000000 0.000000 0.000000 0.000000 0.000000 0.000000 0.000000 0.000000 0.000000 0.000000 0.000000 0.000000 0.000000 0.000000 0.000000 0.000000 0.000000 0.000000 0.000000 0.000000 0.000000 0.000000 0.000000 0.000000 0.000000 0.000000 0.000000 0.000000 0.000000 0.000000 0.000000 0.000000 0.000000 0.000000 0.000000 0.000000 0.000000 -3.108329 -18.701188 9.551153 20.760392 -40.435247 30.308631 13.442802 3.877270 32.711065 -4.305222 -2.084406 6.512997 0.000000 0.000000 0.000000 0.000000 0.000000 0.000000 0.000000 0.000000 0.000000 0.000000 0.000000 0.000000 0.000000 0.000000 0.000000 0.000000 0.000000 0.000000 0.000000 0.000000 0.000000 0.000000 0.000000 0.000000 0.000000 0.000000 0.000000 0.000000 0.000000 0.000000 0.000000 0.000000 0.000000 0.000000 0.000000 0.000000 0.000000 0.000000 0.000000 0.000000 0.000000 0.000000
0.007773 0.661692 1.035560 -7.115784 2.390191 -7.385703 -19.981079 -2.181459 -1.801386 7.361266 1.539659 -3.900072 -1.440859 3.018852 8.631926 -0.784327 -2.503348 -1.209321 15.870402 -4.438315 -2.635604 11.905140 1.842738 15.149375 -22.181309 2.404953 1.734795 -1.050827 -1.169819 0.433204 11.324423 -0.652348 8.643334 -1.838104 0.972358 -1.426916 4.570867 0.971315 2.178582 6.511468 -1.408488 4.433465 4.459066 -1.486553 -2.086204 -2.158727 23.192500 0.438701 20.570505 43.711244 -13.350952 18.238756 -0.379497 -21.325592 0.514572 0.102981 -7.007047 0.000000 0.000000 0.000000 0.000000 0.000000 0.000000 0.000000 0.000000 0.000000 0.000000 0.000000 0.000000 0.000000 0.000000 0.000000 0.000000 0.000000 0.000000 0.000000 0.000000 0.000000 0.000000 0.000000 0.000000 0.000000 0.000000 0.000000 0.000000 0.000000 0.000000 0.000000 0.000000 0.000000 0.000000 0.000000 0.000000 0.000000 0.000000 0.000000 0.000000 0.000000 0.000000 -2.699821 -19.320800 9.126920 21.276865 -40.688217 30.288033 13.844186 3.944672 32.156991 -3.830934 -2.710225 6.277696 0.000000 0.000000 0.000000 0.000000 0.000000 0.000000 0.000000 0.000000 0.000000 0.000000 0.000000 0.000000 0.000000 0.000000 0.000000 0.000000 0.000000 0.000000 0.000000 0.000000 0.000000 0.000000 0.000000 0.000000 0.000000 0.000000 0.000000 0.000000 0.000000 0.000000 0.000000 0.000000 0.000000 0.000000 0.000000 0.000000 0.000000 0.000000 0.000000 0.000000 0.000000 0.000000
0.004957 0.683823 1.035546 -6.727598 2.262000 -7.528917 -20.424915 -1.915361 -2.312070 9.490654 2.013696 -3.887994 -0.972617 2.418903 9.069005 -0.804971 -2.553099 -1.228348 15.832312 -3.792033 -2.513033 13.280280 1.882343 15.651807 -21.211057 1.765887 1.572052 -1.050027 -1.196393 0.437085 10.582793 -0.272791 8.783573 -1.656500 0.885735 -1.412244 4.514713 1.043992 2.191923 6.575307 -1.491818 4.429387 4.516327 -1.720153 -2.102953 -1.983021 23.296905 0.632317 20.796457 43.453731 -13.689104 18.195316 -0.567321 -21.168673 0.811262 0.309286 -7.195507 0.000000 0.000000 0.000000 0.000000 0.000000 0.000000 0.000000 0.000000 0.000000 0.000000 0.000000 0.000000 0.000000 0.000000 0.000000 0.000000 0.000000 0.000000 0.000000 0.000000 0.000000 0.000000 0.000000 0.000000 0.000000 0.000000 0.000000 0.000000 0.000000 0.000000 0.000000 0.000000 0.000000 0.000000 0.000000 0.000000 0.000000 0.000000 0.000000 0.000000 0.000000 0.000000 -2.286263 -19.828407 8.788307 21.789386 -40.921546 30.015881 14.244739 4.019489 31.753649 -3.339793 -3.480382 6.159041 0.000000 0.000000 0.000000 0.000000 0.000000 0.000000 0.000000 0.000000 0.000000 0.000000 0.000000 0.000000 0.000000 0.000000 0.000000 0.000000 0.000000 0.000000 0.000000 0.000000 0.000000 0.000000 0.000000 0.000000 0.000000 0.000000 0.000000 0.000000 0.000000 0.000000 0.000000 0.000000 0.000000 0.000000 0.000000 0.000000 0.000000 0.000000 0.000000 0.000000 0.000000 0.000000
